<?xml version="1.0" encoding="utf-8"?>
<!-- Generator: Adobe Illustrator 22.1.0, SVG Export Plug-In . SVG Version: 6.00 Build 0)  -->
<svg version="1.1" id="Layer_1" xmlns="http://www.w3.org/2000/svg" xmlns:xlink="http://www.w3.org/1999/xlink" x="0px" y="0px"
	 viewBox="0 0 500 500" style="enable-background:new 0 0 500 500;" xml:space="preserve" fill="currentColor">
<g>
	<path d="M317.7,360.7c0-5.5-0.1-10.9-0.2-16.3c-17.5,6-42.1,9.7-69.4,9.7c-25.1,0-48-3.2-65.1-8.3c-0.1,5.4-0.2,10.8-0.2,16.3
		c2.7,0.8,5.6,1.6,8.6,2.3v13.1c0,7.4,6,13.4,13.4,13.4c7.4,0,13.4-6,13.4-13.4v-8.6c6,0.6,12.3,1.1,18.7,1.4v12
		c0,7.4,6,13.4,13.4,13.4c7.4,0,13.4-6,13.4-13.4v-12.2c6.5-0.3,12.8-0.9,18.7-1.7v9.1c0,7.4,6,13.4,13.4,13.4s13.4-6,13.4-13.4
		v-14.2C312.1,362.5,315,361.6,317.7,360.7z"/>
	<path d="M293,116.3c-11.5,3.9-26.2,6-43.6,6c-17.2,0-31.8-2.1-43.3-5.9c-11.3,50.4-20.9,127.4-23,220.9c17.1,5.1,39.9,8.3,65,8.3
		c27.2,0,51.7-3.7,69.2-9.6C315,243.1,304.9,166.6,293,116.3z M250.2,156.8c12.6,0,22.8,10.2,22.8,22.8s-10.2,22.8-22.8,22.8
		c-12.6,0-22.8-10.2-22.8-22.8S237.6,156.8,250.2,156.8z M250.2,301.4c-18.6,0-33.8-15.1-33.8-33.8c0-18.7,15.1-33.8,33.8-33.8
		c18.7,0,33.8,15.1,33.8,33.8C284,286.2,268.9,301.4,250.2,301.4z"/>
	<path d="M291.9,108.3C274.3,36.5,253.4,5,248.6,5c-4.8,0-24.8,31.2-41.5,103.3c11,3.8,25.4,5.8,42.2,5.8
		C266.4,114.2,280.8,112.1,291.9,108.3z"/>
	<g>
		<path d="M318.9,234.1c4.3,43.2,6.1,99,6.6,121.3c28.4,1.4,47.6,33.8,47.6,20.4C373.2,313,340.1,248.2,318.9,234.1z"/>
		<path d="M181.5,234.1c-4.3,43.2-6.1,99-6.6,121.3c-28.4,1.4-47.6,33.8-47.6,20.4C127.3,313,160.3,248.2,181.5,234.1z"/>
	</g>
	<path d="M201.2,399.4c-12,0-20.8,45.1-14,45.1c4.3,0,6-15,7.7-15c1.7,0-1,40.1,3,40.7s6.3-25.7,8.3-25.7c2,0,2.7,41.7,7,41.7
		C221.2,486.2,218.9,399.4,201.2,399.4z"/>
	<path d="M297.4,399.4c12,0,20.8,45.1,14,45.1c-4.3,0-6-15-7.7-15c-1.7,0,1,40.1-3,40.7c-4,0.7-6.3-25.7-8.3-25.7
		c-2,0-2.7,41.7-7,41.7C277.3,486.2,279.7,399.4,297.4,399.4z"/>
	<path d="M250.3,403.1c15.7,0,23.4,55.1,19.7,55.1s-9.7-18-12.7-18s-1,54.4-8,54.4c-7,0-3.3-60.1-8-60.1c-2.3,0-5.5,17.7-10,17.7
		S232.6,403.1,250.3,403.1z"/>
</g>
</svg>
