<svg class="h-[50px] p-2 transition-all" version="1.1" xmlns="http://www.w3.org/2000/svg" xmlns:xlink="http://www.w3.org/1999/xlink" x="0px" y="0px" viewBox="0 0 605.6 85" xml:space="preserve"><title>Mode für Damen bei ALBA MODA kaufen - exklusiv &amp; italienisch</title><g><path class="st1" d="M51.8.2l23.6 57.2c3.7 8.5 5.7 17.5 14 25.8.1.1 0 .3-.1.3H65.9c-.2 0-.3-.3-.1-.4 3.7-1.4 4.4-2.6 4.4-4.8 0-1.7-.6-3.3-1.1-4.8l-8.4-21.2H27.1l-.6 2.3-6.8 17.9c-.6 1.8-1 2.9-1 4.5 0 2.5 1.4 4.1 3.2 6 .1.1 0 .3-.1.3H.2c-.2 0-.3-.3-.1-.4 5.6-4 6.5-5.3 9.8-11.5l24.7-61.3c.9-2.4 1-3.1 1-4.4 0-1.7-.6-2.8-3.3-5.2-.1-.1-.1-.4.1-.4h19.4v.1zM30.2 44.5h27.2L44 10.6 30.2 44.5zM108.8 74c.3 4.7.7 5.7 3.4 9.2.1.1 0 .3-.2.3H93.7c-.2 0-.3-.2-.1-.3 3.1-3.5 3.4-4.8 3.9-9.5V10.9c-.6-4.8-1.1-7.1-4-10.6-.1-.1 0-.3.2-.3 9 .1 8.8 0 14.9 0l.2 74zM409.6 32.7c8.7-8.1 20-8.9 23.8-8.9 17.8 0 31.6 12.6 31.6 30.7 0 2.5-.2 8.4-3.4 14.5-5.6 10.3-17.7 15.7-29.1 15.7-3.4 0-14-.6-22.1-7.7-6.4-5.7-10.2-14.5-10-23.3 0-7.9 3.5-15.7 9.2-21zm4.7 28.5c3 8.2 10.2 15.3 19.1 15.3 11.9 0 19.3-10.2 19.3-21.4 0-1.5-.1-4.5-1.4-8.2-2.7-8.3-10-15.1-18.9-15.1-2.4 0-9 .7-13.9 5.8-4.9 5.3-5.5 12.4-5.5 14.7-.1 4.2.9 7.6 1.3 8.9zM555.8 25.1c4.5-.7 11.5-2.4 16.3-2.3 16.1.2 19.8 6.8 21.3 9.5s2.3 6.4 2.3 10.1v23.3c0 .7-.1 4.4 2 6.8 1.6 1.9 2.5 2.1 7.7 1.5.2 0 .3.1.2.3l-3.5 8.7c-2.6.1-11.1 1-15.7-4-2.5-2.8-2.7-5.6-2.9-8.9v-19c-5.9 2.4-7.3 2.7-13.4 4.3-7.2 1.8-9.8 3.2-11.7 6.3-.9 1.3-1.3 2.7-1.3 4.3 0 1 .1 2.7 1.5 4.6 3.6 5 9.8 5.1 11.2 5.1 2.7 0 5.1-.7 9.5-2.6.2-.1.3.1.3.3l-4 9.9c-8.7.9-15.9.7-20.2-.6-5.8-1.6-11.9-7.2-11.9-16 0-10.6 10-14.4 16.2-16.3L574 47c3.3-1 8.6-2.6 8.7-6.8.1-2.2-1.6-8.7-12.2-8.6-6.7 0-13 2.7-18.6 5.1-.2.1-.3-.1-.3-.3l4.2-11.3zM534 .2h-14.9c-.2 0-.3.2-.2.3 3 3.9 3.5 5.4 3.8 10.4v16.5c-5-3-10.9-4.7-17.4-4.7-3.8 0-15.1.8-23.8 8.9-5.7 5.3-9.2 13.1-9.3 20.9-.2 8.8 3.6 17.6 10 23.3 8.1 7.1 18.7 7.7 22.1 7.7 3 0 6.1-.4 9.2-1.2l3.7-9.5c.1-.2-.1-.3-.3-.2-4.3 2.3-6.4 2.9-11.5 2.9-8.9 0-16.2-7.1-19.1-15.3-.5-1.3-1.4-4.8-1.3-8.8 0-2.4.6-9.4 5.5-14.7 4.9-5.1 11.5-5.8 13.9-5.8 8.4 0 17.2 5.4 18.4 16.6v36.1h14.8c.2 0 .3-.2.2-.3-3.3-4.3-3.2-5.9-3.4-9.1M347 83.7h-2.2L338.7 70l-5-11.5-19.9-45.7-.7 3.5c-2.3 18.2-4.5 36.5-6.6 55.1-.4 6.3 0 7.8 3.8 12.1.1.1 0 .3-.1.3H291c-.2 0-.3-.2-.1-.3.9-.8 1.6-1.6 2.3-2.4 2.3-2.5 3-4.1 4.3-10.3 1.4-10 2.8-20.2 4.1-30.3 1.1-9.8 2.3-19.5 3.4-29.3.3-5.4 0-6.7-2.7-10.9-.1-.1 0-.3.2-.3h19.2c1.4 4.2 2.8 8.4 4.4 12.4 1.9 4.7 4.1 9.3 6 14 2.3 5.5 4.5 11 6.6 16.6 2.7 6.3 5.4 12.8 8.1 19.1 2.7-7.4 5.4-14.8 8-22.2 1.9-5 3.7-10.2 5.6-15.3 5.6-15.3 5.9-13.9 8.1-24.6h19.7c.2 0 .3.2.1.3-.5.6-1.7 1.9-2.2 2.8-1.6 2.5-1.4 5.1-1 8.4l8.2 61c1.3 5.7 1.9 7 5.6 11 .1.1 0 .3-.1.3h-23.1c1.1-.7 2-1.4 2.4-1.8 2.9-2.6 2.9-6.2 2.8-10.3-.3-3.7-.7-7.3-1-10.9-.8-6.6-1.7-13-2.6-19.6-1.2-9.6-2.4-19.3-3.6-29.1M207.4 25c4.5-.7 11.5-2.4 16.3-2.3 16.1.2 19.8 6.8 21.3 9.5s2.3 6.4 2.3 10.1v23.3c0 .7-.1 4.4 2 6.8 1.6 1.9 2.5 2.1 7.7 1.5.2 0 .3.1.2.3l-3.5 8.7c-2.6.1-11.1 1-15.7-4-2.5-2.8-2.7-5.6-2.9-8.9V51c-5.9 2.4-7.3 2.7-13.4 4.3-7.2 1.8-9.8 3.2-11.7 6.3-.9 1.3-1.3 2.7-1.3 4.3 0 1 .1 2.7 1.5 4.6 3.6 5 9.8 5.1 11.2 5.1 2.7 0 5.1-.7 9.5-2.6.2-.1.3.1.3.3l-4 9.9c-8.7.9-15.9.7-20.2-.6-5.8-1.6-11.9-7.2-11.9-16 0-10.6 10-14.4 16.2-16.3l14.3-3.4c3.3-1 8.6-2.6 8.7-6.8.1-2.2-1.6-8.7-12.2-8.6-6.7 0-13 2.7-18.6 5.1-.2.1-.3-.1-.3-.3l4.2-11.3zM126.6 74.1c-.2 3.2-.1 4.8-3.4 9.1-.1.1 0 .3.2.3H138c.1 0 .2-.1.2-.2V47.4c1.1-11.2 10-16.6 18.4-16.6 2.4 0 9 .7 13.9 5.8 4.9 5.3 5.5 12.4 5.5 14.7.1 4-.8 7.5-1.3 8.8-3 8.2-10.2 15.3-19.1 15.3-5.1 0-7.4-.6-11.5-2.9-.2-.1-.4.1-.3.2l3.7 9.5c3 .8 6.1 1.2 9.2 1.2 3.4 0 14-.6 22.1-7.7 6.4-5.7 10.2-14.5 10-23.3-.1-7.8-3.6-15.6-9.3-20.9-8.7-8.1-14.6-8.9-23.8-8.9-6.5 0-12.4 1.7-17.4 4.7V10.9l.1-10.9h-14.9c-.2 0-.3.2-.2.3 2.3 2.9 3.1 4.2 3.6 7.4"></path></g></svg>