<svg xmlns="http://www.w3.org/2000/svg" fill="none" viewBox="0 0 114 32"><path fill="#e50040" fill-rule="evenodd" d="M32.919 3.138c-4.221 0-5.587 2.193-6.062 3.12-.202.396.14.309.246.252 1.658-.83 2.911-1.26 4.586-1.26 3.979 0 6.78 4.172 6.78 11.053 0 6.078-2.652 13.134-8.29 13.134-5.112 0-8.01-6.323-8.01-12.54 0-4.01.663-7.556 2.32-10.41 1.045-1.824 2.292-3.184 4.424-4.135.574-.262 2.1-.715 4.261-.601.281 0 .592-.338.71-.466l.016-.018c.134-.149.254-.31.358-.48 0 0 .14-.222-.046-.292A8.99 8.99 0 0 0 31.125 0c-9.676 0-13.29 9.773-13.29 16.631C17.835 23.913 21.84 32 29.845 32c7.116 0 12.292-7.674 12.292-15.72.003-5.455-1.976-13.142-9.218-13.142Zm-16.2 23.979c-1.236 0-1.989.813-1.989 2.055a1.928 1.928 0 0 0 .58 1.435 1.878 1.878 0 0 0 1.44.523c1.515 0 1.99-1.202 1.99-2.015-.03-1.098-.551-1.998-2.02-1.998Zm96.564-14.3c.167.017.333.049.495.094a.333.333 0 0 1 .222.295c-.046.284-.166.55-.349.77-.443.638-1.15 1.611-1.538 2.135-.058.081-.125.156-.198.222a.506.506 0 0 1-.263.114c-.084.013-.17.02-.255.024-5.287.21-6.033 5.802-6.203 7.07l-.001.013a15.203 15.203 0 0 0-.113 2.216v3.674l-.001.006c-.026.397-.047.717-.377.847-.455.11-.921.163-1.39.158a3.371 3.371 0 0 1-1.326-.171c-.42-.186-.431-.532-.445-.948l-.002-.083v-4.235s-2.922 5.857-8.794 5.669c-6.355-.202-6.871-6.798-6.922-7.451l-.005-.052a10.94 10.94 0 0 1-3.697-1.373l-.052.17c-.401 1.335-2.67 8.897-6.454 8.897-2.9 0-4.595-4.372-5.066-5.587a23.53 23.53 0 0 0-.047-.122c-.004-.01-.013.005-.043.054l-.004.006c-2.56 4.259-5.212 5.71-6.87 5.71-2.773 0-3.754-3.13-3.937-4.86-.765 1.404-4.111 4.89-7.513 4.89-3.824 0-5.352-4.594-5.684-5.659a17.572 17.572 0 0 1-4.473 2.052c-.072.018-.145.03-.219.037-.123 0-.169-.01-.206-.094-.036-.084.044-.259.044-.259a71.66 71.66 0 0 0 .626-1.585c.043-.12.102-.232.176-.336a.626.626 0 0 1 .172-.147c.078-.049.159-.09.243-.125a13.127 13.127 0 0 0 3.203-1.79C46 23.006 46 22.96 46 22.936a41.85 41.85 0 0 1-.573-6.778c0-6.894 1.601-14.283 6.698-14.283 4.055 0 4.596 4.416 4.55 7.325-.136 8.375-4.381 12.209-6.524 14.144l-.168.153c-.047.04-.07.077-.07.077.421 1.585 1.234 4.57 3.538 4.54 1.963-.033 5.09-2.901 5.856-5.709 0 0 .219-.588.219-3.61v-3.268a.774.774 0 0 1 .305-.641 31.02 31.02 0 0 1 2.795-1.592.509.509 0 0 1 .54 0 .631.631 0 0 1 .19.483c.07.678-.023 2.826-.084 4.232-.026.587-.046 1.045-.046 1.212a96.778 96.778 0 0 1-.024 1.598c-.017.834-.034 1.65-.015 2.526-.013.997.059 1.992.215 2.976l.008.043c.08.422.38 2.018 1.862 1.549 1.443-.45 3.99-3.392 4.245-6.495 0 0-.222-4.333-.222-5.747a2.377 2.377 0 0 1 .043-.671.547.547 0 0 1 .252-.336c.57-.39 2.291-1.471 2.891-1.733a.657.657 0 0 1 .269-.064c.249-.013.385.215.374.558a12.06 12.06 0 0 1-.023.439c-.015.216-.03.441-.03.672-.407 10.15 2.637 13.004 3.373 13.004 1.628 0 2.855-3.627 3.471-5.672.17-.455.314-.92.432-1.39a.635.635 0 0 0-.153-.353 7.811 7.811 0 0 1-1.608-4.43c-.047-.796.315-1.626 1.396-2.411.567-.41 1.526-1.045 2.072-1.045a.794.794 0 0 1 .556.213c.152.141.243.335.257.543.338 1.672-.017 5.414-.1 6.102a.489.489 0 0 0 .133.463 9.285 9.285 0 0 0 2.984 1.643v-.044c.332-4.03 2.583-8.624 7.345-8.624 3.415 0 4.68 2.414 4.68 4.51 0 3.741-3.55 6.186-8.215 6.344-.11.003-.212.007-.175.171.278 1.303 1.216 4.39 4.31 4.39 1.688 0 3.28-.568 5.422-3.066a11.62 11.62 0 0 0 1.787-3.08 5.12 5.12 0 0 0 .388-1.713s.086-1.095.07-3.18l-.016-.711a61.747 61.747 0 0 1-.027-1.371c.003-.686 1.83-1.75 2.851-2.136.584-.219.717.497.743.691.126.978.05 2.946 0 4.255-.024.62-.042 1.092-.03 1.24l-.023.433.018-.04c.251-.571 3.077-7.006 8.271-6.455ZM52.254 4.45c-2.566 0-3.044 7.305-3.044 10.59a39.636 39.636 0 0 0 .361 5.692c2.988-2.697 4.517-7.157 4.517-11.476 0-2.583-.295-4.806-1.834-4.806Zm40.912 10.707c-3.047 0-3.817 4.023-3.873 6.18-.003.155.077.157.194.16h.005c4.218-.208 5.72-2.26 5.82-3.825.089-1.384-.604-2.515-2.146-2.515Zm-31.24-4.124a2.001 2.001 0 0 0 1.436-.55c.388-.369.617-.877.637-1.415a2.12 2.12 0 0 0-.657-1.396 2.068 2.068 0 0 0-1.42-.568c-.528 0-1.036.203-1.421.568a2.12 2.12 0 0 0-.657 1.396c.02.54.25 1.05.64 1.418.39.368.91.565 1.442.546Zm-50.25 2.653c.25.124.493.264.727.42a.85.85 0 0 1 .199.19.133.133 0 0 1 0 .145.776.776 0 0 1-.127.162 12.147 12.147 0 0 1-1.591 1.434.358.358 0 0 1-.206.057.589.589 0 0 1-.212-.091l-.431-.279a5.446 5.446 0 0 0-2.7-.792c-2.218 0-2.811 1.178-2.914 1.937-.054.392 0 .792.157 1.154.156.363.408.675.728.902a13.467 13.467 0 0 0 2.101 1.13c1.489.666 3.377 1.509 4.3 2.782.574.776.887 1.717.895 2.687 0 1.38-.783 3.043-2.305 4.171-1.217.903-2.603 1.28-4.48 1.28a12.133 12.133 0 0 1-4.231-.85 6.812 6.812 0 0 1-1.3-.705c-.027-.02-.305-.22-.285-.46a.778.778 0 0 1 .232-.423c.414-.405.857-.776 1.327-1.112a.328.328 0 0 1 .335-.027c2.065 1.122 3.54 1.484 4.595 1.484 1.47 0 2.603-.822 2.696-1.947a1.974 1.974 0 0 0-.464-1.512 7.13 7.13 0 0 0-1.724-1.266 45.92 45.92 0 0 0-2.558-1.324c-.392-.192-.76-.372-1.09-.543a5.908 5.908 0 0 1-1.658-1.223 4.062 4.062 0 0 1-.948-2.76c0-2.643 1.84-5.209 6.108-5.575a9.258 9.258 0 0 1 2.119.08c.94.154 1.851.449 2.705.874Z" clip-rule="evenodd"></path></svg>