<?xml version="1.0" encoding="UTF-8" standalone="no"?>
<!DOCTYPE svg PUBLIC "-//W3C//DTD SVG 1.1//EN" "http://www.w3.org/Graphics/SVG/1.1/DTD/svg11.dtd">
<svg width="100%" height="100%" viewBox="0 0 60 22" version="1.1" xmlns="http://www.w3.org/2000/svg" xmlns:xlink="http://www.w3.org/1999/xlink" xml:space="preserve" xmlns:serif="http://www.serif.com/" style="fill-rule:evenodd;clip-rule:evenodd;stroke-linejoin:round;stroke-miterlimit:2;">
    <g>
        <g transform="matrix(0.335846,0,0,0.335846,-14.6523,-1.14188)">
            <rect x="127.1" y="26.1" width="5.8" height="21.9"/>
        </g>
        <g transform="matrix(0.335846,0,0,0.335846,-14.6523,-1.14188)">
            <rect x="127.1" y="18.2" width="5.8" height="5.3"/>
        </g>
        <g transform="matrix(0.335846,0,0,0.335846,-14.6523,-1.14188)">
            <path d="M87.5,26.1L87.5,39.3C87.5,41.8 87.8,43.7 88.4,45C89.5,47.3 91.7,48.5 94.9,48.5C96,48.5 97,48.4 97.8,48.1C98.6,47.8 99.5,47.3 100.4,46.5C100.7,46.2 100.9,46 101.2,45.6C101.4,45.3 101.5,45.1 101.6,45L101.6,48L107.2,48L107.2,26.1L101.4,26.1L101.4,38C101.4,39.4 101.2,40.5 100.8,41.4C100.1,43 98.7,43.8 96.8,43.8C95.3,43.8 94.3,43.2 93.7,42.1C93.4,41.5 93.3,40.5 93.3,39.3L93.3,26.1L87.5,26.1Z" style="fill-rule:nonzero;"/>
        </g>
        <g transform="matrix(0.335846,0,0,0.335846,-14.6523,-1.14188)">
            <path d="M66.4,48L72,48L72,41.1L74.4,38.6L79.7,48L86.7,48L78.5,34.4L86.3,26.2L79.2,26.2L72,34.5L72,19.2L66.4,19.2L66.4,48Z" style="fill-rule:nonzero;"/>
        </g>
        <g transform="matrix(0.335846,0,0,0.335846,-14.6523,-1.14188)">
            <path d="M63.5,46.5C63.3,46.2 63.2,45.7 63.2,45L63.2,32.4C63.2,29.8 62.3,28 60.4,27C58.5,26 56.4,25.6 54,25.6C50.3,25.6 47.7,26.6 46.2,28.5C45.2,29.7 44.7,31.3 44.6,33.2L50.1,33.2C50.2,32.4 50.5,31.7 50.9,31.2C51.5,30.5 52.4,30.2 53.8,30.2C55,30.2 56,30.4 56.6,30.7C57.2,31 57.5,31.7 57.5,32.6C57.5,33.3 57.1,33.9 56.3,34.2C55.8,34.4 55.1,34.6 54,34.7L52,34.9C49.8,35.2 48.1,35.7 46.9,36.3C44.8,37.5 43.8,39.5 43.8,42.2C43.8,44.3 44.5,45.9 45.8,47C47.1,48.1 48.7,48.7 50.7,48.7C52.3,48.7 53.7,48.3 54.9,47.6C55.9,47 56.9,46.3 57.7,45.4C57.7,45.9 57.8,46.3 57.9,46.7C58,47.1 58.1,47.5 58.3,47.9L64.5,47.9L64.5,47.1C63.9,47 63.6,46.8 63.5,46.5ZM57.4,39.5C57.4,41.4 56.8,42.7 55.8,43.5C54.7,44.2 53.6,44.6 52.3,44.6C51.5,44.6 50.8,44.4 50.3,43.9C49.7,43.5 49.5,42.8 49.5,41.8C49.5,40.7 50,39.9 50.9,39.4C51.4,39.1 52.3,38.8 53.5,38.6L54.8,38.4C55.5,38.3 56,38.1 56.3,38C56.7,37.9 57,37.7 57.4,37.4L57.4,39.5Z" style="fill-rule:nonzero;"/>
        </g>
        <g transform="matrix(0.335846,0,0,0.335846,-14.6523,-1.14188)">
            <path d="M146.4,30.8L146.4,26L141.8,26L141.8,20.2L136.1,20.2L136.1,43.9C136.1,45.3 136.4,46.3 137.1,46.9C138.1,47.9 140.9,48.4 143.6,48.3L146.3,48.2L146.3,43.9L145.1,43.9C142.6,43.9 141.7,43.4 141.7,41.9L141.7,30.8L146.4,30.8" style="fill-rule:nonzero;"/>
        </g>
        <g transform="matrix(0.335846,0,0,0.335846,-14.6523,-1.14188)">
            <path d="M118.8,26.9C118.1,27.4 117.4,28.4 116.5,29.9L116.5,26.1L111,26.1L111,48.1L116.8,48.1L116.8,37.5C116.8,35.7 117,34.4 117.5,33.6C118.3,32.1 119.8,30.8 122.2,30.8L125,30.8L125,26L123,26C121.3,26 119.9,26 118.8,26.9" style="fill-rule:nonzero;"/>
        </g>
        <g transform="matrix(0.335846,0,0,0.335846,-14.6523,-1.14188)">
            <rect x="156.9" y="3.4" width="63.8" height="63.8" style="fill:rgb(230,0,15);"/>
        </g>
        <g transform="matrix(0.335846,0,0,0.335846,-14.6523,-1.14188)">
            <path d="M187.2,41.7L190.5,29.9L176.6,29.9L173.3,41.7L187.2,41.7Z" style="fill:white;fill-rule:nonzero;"/>
            <path d="M191.6,26.1L196,10.3L182.1,10.3L177.6,26.1L191.6,26.1Z" style="fill:white;fill-rule:nonzero;"/>
            <path d="M172.1,45.8L168.1,60.2L182,60.2L186.1,45.8L172.1,45.8Z" style="fill:white;fill-rule:nonzero;"/>
        </g>
        <g transform="matrix(0.335846,0,0,0.335846,-14.6523,-1.14188)">
            <path d="M200.5,26.1L198,17.4L195.6,26.1L200.5,26.1Z" style="fill:white;fill-rule:nonzero;"/>
            <path d="M191.5,45.8L195.6,60.2L210,60.2L206,45.8L191.5,45.8Z" style="fill:white;fill-rule:nonzero;"/>
            <path d="M191.2,41.8L204.8,41.8L201.5,30L194.5,30L191.2,41.8Z" style="fill:white;fill-rule:nonzero;"/>
        </g>
    </g>
</svg>
