<?xml version="1.0" encoding="UTF-8"?>
<svg id="Ebene_1" xmlns="http://www.w3.org/2000/svg" version="1.1" viewBox="0 0 3000 891.9">
  <!-- Generator: Adobe Illustrator 29.5.1, SVG Export Plug-In . SVG Version: 2.1.0 Build 141)  -->
  <defs>
    <style>
      .st0 {
        fill: #1d1d1b;
      }

      .st1 {
        fill: #cc4b16;
      }
    </style>
  </defs>
  <path class="st1" d="M844.9,810.9c-22.7,15.5-46.7,31-72,46.5C280.9,855.1,20.2,418.9,199,255.1c112.6-101.1,316.2-37.9,528.2,214.9,19.1-80.7,155-377.7,370.3-293.9,74,31.2,116.3,109.3,96.6,213.1,22,1.9,42.5,7.1,61.5,15.5,66.2-183.5-11.8-327-138.8-381-289.8-117-370.3,232.2-402.4,325.3C516.3,86.3,317.6-84.5,106.7,56.3c-291.9,221.5,42.3,831.5,673.1,835.6,41.6-25.4,80.1-50.7,115.8-76-17.4.8-37.8,0-50.8-5Z"/>
  <g>
    <path class="st0" d="M485.2,718.3h-10.1v-283.3c0-20.7-.6-34-1.7-40.1-1.1-6-4-10.5-8.5-13.4-4.6-2.9-12.5-4.4-23.9-4.4v-11.9c10.2,0,22.4-1.2,36.7-3.6,14.3-2.4,24-4.8,29.2-7.2h5.4v167.5c12.1-10.9,24.3-19,36.7-24.3,12.4-5.3,25-8,37.7-8,30.5,0,55.5,10.6,75,31.8,19.5,21.2,29.2,48.3,29.2,81.2s-10,60.7-30,82.7c-20,22.1-45.9,33.1-77.8,33.1s-29.4-3.3-41.2-9.8c-11.8-6.5-21.7-16.3-29.6-29.2-11.2,11.2-20.2,24.2-27.1,39ZM512.4,537.1v83c0,21.4,1.4,36.7,4.3,46.1,2.8,9.4,9.7,18.4,20.5,27,10.9,8.6,23.5,12.9,38,12.9,22.2,0,39.9-9.1,53.1-27.4,13.2-18.3,19.8-44.5,19.8-78.8s-6.2-55.5-18.5-72c-12.3-16.5-28.7-24.7-49.2-24.7s-23.2,2.8-34.5,8.4c-11.3,5.6-22.4,14.1-33.5,25.5Z"/>
    <path class="st0" d="M980.3,671h9.6c-1.6,29.5-16,44.2-43.4,44.2s-21-3.1-27.8-9.3c-6.8-6.2-11.2-15.4-13.3-27.7-17.2,12.2-33,21.5-47.2,27.7-14.2,6.2-26.9,9.3-38.1,9.3s-26.6-4.1-37-12.4c-10.3-8.3-15.5-19.2-15.5-32.8s8.7-33.3,26-46.5c17.3-13.3,41.2-26.2,71.7-38.8l40.1-16.3v-10.3c0-14.6-.9-25.2-2.8-31.8-1.9-6.5-6.8-12.4-14.7-17.6-7.9-5.2-18.4-7.8-31.3-7.8-25.9,0-40.2,8.6-43.2,25.8-2.8,17.6-10,26.4-21.7,26.4s-15.8-5-15.8-15,7-20.4,20.9-31.7c14-11.3,35.7-16.9,65.1-16.9s38.9,3.4,50.9,10.3c12.1,6.9,20,14.7,23.9,23.5,3.9,8.8,5.8,22.2,5.8,40.3v85.6c0,20,1,32.8,3.1,38.5s6.5,8.5,13.4,8.5c11.4,0,18.4-8.4,21.2-25.3ZM905.4,580.6l-28.2,11.4c-44.5,18.1-66.7,40.8-66.7,68.2s2.8,19.6,8.5,26.2c5.7,6.6,13.1,10,22.2,10s17.5-2.7,28.2-8c10.7-5.3,22.7-13.4,35.9-24v-83.8Z"/>
    <path class="st0" d="M1072.7,718.3h-10.1v-283.3c0-20.7-.6-34-1.7-40.1-1.1-6-4-10.5-8.5-13.4-4.6-2.9-12.5-4.4-23.9-4.4v-11.9c10.2,0,22.4-1.2,36.7-3.6,14.3-2.4,24-4.8,29.2-7.2h5.4v167.5c12.1-10.9,24.3-19,36.7-24.3,12.4-5.3,25-8,37.7-8,30.5,0,55.5,10.6,75,31.8,19.5,21.2,29.2,48.3,29.2,81.2s-10,60.7-30,82.7c-20,22.1-45.9,33.1-77.8,33.1s-29.4-3.3-41.2-9.8c-11.8-6.5-21.7-16.3-29.6-29.2-11.2,11.2-20.2,24.2-27.1,39ZM1099.9,537.1v83c0,21.4,1.4,36.7,4.3,46.1,2.8,9.4,9.7,18.4,20.5,27,10.9,8.6,23.5,12.9,38,12.9,22.2,0,39.9-9.1,53.1-27.4,13.2-18.3,19.8-44.5,19.8-78.8s-6.2-55.5-18.5-72c-12.3-16.5-28.7-24.7-49.2-24.7s-23.2,2.8-34.5,8.4c-11.3,5.6-22.4,14.1-33.5,25.5Z"/>
    <path class="st0" d="M1457.2,669.7l49.1-117.6c7.1-17.2,10.6-26.8,10.6-28.7,0-8.6-9.6-13.1-28.7-13.4v-11.9h74.4v11.9c-11.5.5-20,3.6-25.3,9.2-5.3,5.6-12,18-19.9,37.1l-94.3,227.7c-9,21.7-16.9,36.5-23.8,44.3-6.9,7.8-14.5,11.8-22.7,11.8s-16.8-5.1-16.8-15.3,9-21.6,26.9-29.7c10.5-4.7,17.5-8.6,21.1-11.9,3.5-3.3,7-9.2,10.5-17.8l20.2-50.4-79.6-170.6c-7.1-15-12.9-24.5-17.6-28.4-4.7-4-12.6-5.9-23.8-5.9v-11.9h97.2v11.9c-17.1.5-25.6,4-25.6,10.6s3.4,11,10.1,25.3l58.2,123.8Z"/>
    <path class="st0" d="M1673.9,489.6h2.6c5,11.5,7.5,26.4,7.5,44.5,11.5-14.8,24-25.9,37.3-33.3,13.4-7.4,27.7-11.1,43-11.1s31.5,4,42.4,11.9c10.9,7.9,18.4,19.8,22.7,35.7,13.1-15.9,26.5-27.7,40.3-35.7,13.8-7.9,27.8-11.9,42.1-11.9s30.2,3.8,41.6,11.4c11.4,7.6,18.3,16.2,20.7,25.8,2.4,9.7,3.6,25.2,3.6,46.8v63.6c0,24.6.5,39.6,1.4,45,.9,5.3,3.7,9.3,8.3,11.9,4.6,2.6,13.1,3.9,25.5,3.9v11.9h-105.7v-11.9c11.2,0,19.1-1.2,23.7-3.7,4.6-2.5,7.4-6.3,8.4-11.4,1-5.1,1.6-20.3,1.6-45.6v-70.6c0-14.3-.8-25.1-2.5-32.3-1.6-7.2-5.9-13.4-12.8-18.6-6.9-5.2-15.9-7.8-26.9-7.8s-22.4,3.8-33.7,11.4c-11.3,7.6-22.6,19-34,34.4v83.5c0,22.6.3,36.7.9,42.5.6,5.8,3,10.3,7.2,13.4,4.2,3.2,11.8,4.8,22.6,4.8v11.9h-102.4v-11.9c11.5,0,19.6-1.2,24.2-3.6,4.6-2.4,7.4-6.1,8.5-11.1,1.1-5,1.7-20.3,1.7-46v-58.7c0-18.6-.7-32.1-2.2-40.5-1.5-8.4-5.9-15.5-13.3-21.5-7.4-5.9-16.6-8.9-27.7-8.9s-21.6,3.4-32.7,10.3c-11.1,6.9-22.4,17.2-34,31v88.1c0,23.3.3,37.7,1,43.4.7,5.7,3.3,10,7.8,12.9,4.5,2.9,12.5,4.4,24,4.4v11.9h-103.6v-11.9c11.4,0,19.3-1.2,23.9-3.7,4.6-2.5,7.4-6.2,8.4-11.2,1-5,1.5-20.2,1.5-45.7v-63.3c0-24.1-.4-38.9-1.2-44.3-.8-5.4-3.4-9.5-8-12.3-4.6-2.8-12.8-4.1-24.7-4.1v-11.9c24.5-2.4,44.7-6.3,60.7-11.6Z"/>
    <path class="st0" d="M2294.6,671h9.6c-1.6,29.5-16,44.2-43.4,44.2s-21-3.1-27.8-9.3c-6.8-6.2-11.2-15.4-13.3-27.7-17.2,12.2-33,21.5-47.2,27.7-14.2,6.2-26.9,9.3-38.1,9.3s-26.6-4.1-37-12.4c-10.3-8.3-15.5-19.2-15.5-32.8s8.7-33.3,26-46.5c17.3-13.3,41.2-26.2,71.7-38.8l40.1-16.3v-10.3c0-14.6-1-25.2-2.8-31.8-1.9-6.5-6.8-12.4-14.7-17.6-7.9-5.2-18.4-7.8-31.3-7.8-25.8,0-40.2,8.6-43.2,25.8-2.8,17.6-10,26.4-21.7,26.4s-15.8-5-15.8-15,7-20.4,20.9-31.7c14-11.3,35.7-16.9,65.1-16.9s38.9,3.4,50.9,10.3c12.1,6.9,20,14.7,23.9,23.5,3.9,8.8,5.8,22.2,5.8,40.3v85.6c0,20,1,32.8,3.1,38.5s6.5,8.5,13.4,8.5c11.4,0,18.4-8.4,21.2-25.3ZM2219.6,580.6l-28.2,11.4c-44.5,18.1-66.7,40.8-66.7,68.2s2.8,19.6,8.5,26.2c5.7,6.6,13.1,10,22.2,10s17.5-2.7,28.2-8c10.7-5.3,22.7-13.4,35.9-24v-83.8Z"/>
    <path class="st0" d="M2434.8,543.6c5.9-15.3,15.4-28.2,28.6-38.5,13.2-10.3,26.1-15.5,38.6-15.5s20.3,3.5,26.9,10.6c6.5,7.1,9.8,14.3,9.8,21.7s-1.7,9.3-5,12.9c-3.4,3.6-7.5,5.4-12.3,5.4-8.6,0-15.2-6.4-19.6-19.1-3.1-8.6-7.8-12.9-14-12.9s-16.3,5-26.6,15.1c-10.3,10.1-17,20.5-19.9,31.4s-4.4,25.8-4.4,44.7v37.7c0,22.6.3,36.8.9,42.6.6,5.9,3.1,10.3,7.4,13.4,4.3,3.1,12,4.6,23,4.6h7.2v11.9h-112.4v-11.9h5.4c10.3,0,17.7-1.4,22.1-4.3,4.4-2.8,7-6.8,7.9-12,.9-5.2,1.3-20,1.3-44.5v-59.7c0-22.7-.3-37-.9-42.8-.6-5.8-3.1-10.3-7.4-13.4-4.3-3.2-12-4.8-23-4.8h-5.4v-11.6c16.2-1.9,37.4-7,63.6-15.3,5,13.6,7.8,31.6,8.3,54Z"/>
    <path class="st0" d="M2706.5,498.1h85.3v11.9c-15.7.3-36.7,12.1-63.1,35.1-8.4,7.2-21.5,17.8-39.3,31.8l75.5,88.4c11.4,13.3,20.3,21.9,26.9,26,6.5,4,13.3,6.2,20.2,6.6v11.9h-105.5v-11.9c17.6-.3,26.4-4.1,26.4-11.4s-5.8-11.6-17.3-25.1l-54.3-63.1-11.1,8.3v30.5c0,22.6.3,36.7.9,42.5.6,5.8,3.1,10.3,7.4,13.4,4.3,3.2,11.8,4.8,22.5,4.8v11.9h-107.3v-11.9h8c12.4,0,20.5-1.8,24.2-5.3,3.7-3.5,5.8-7.8,6.3-12.7s.8-19.2.8-42.8v-212.2c0-20.5-1.9-33.6-5.8-39.3-3.9-5.7-13.2-8.5-28-8.5v-11.9c10.2,0,22.4-1.2,36.6-3.6,14.2-2.4,23.9-4.8,29.1-7.2h5.4v238.1l22.2-15.5c36-25.5,54-43.9,54-55.1s-6.6-11.5-19.9-11.9v-11.9Z"/>
    <path class="st0" d="M2991.7,510h-63.8v127.9c0,19.6.9,32.9,2.6,39.7,1.7,6.8,5.4,12.3,11,16.4,5.6,4.1,11.6,6.2,18,6.2,12.4,0,23.2-7.1,32.3-21.2l8.3,4.9c-5.3,11.4-13.2,19.9-23.7,25.7-10.4,5.8-21,8.7-31.7,8.7s-23.3-3.7-32.7-11c-9.4-7.3-15.2-15.9-17.6-25.7-2.3-9.8-3.5-27.1-3.5-51.7v-119.9h-30.8v-11.9c14.1-.3,26.8-6.3,38-17.8,11.2-11.5,18.4-27.7,21.5-48.6h8.3v66.4h63.8v11.9Z"/>
  </g>
</svg>