<svg xmlns="http://www.w3.org/2000/svg" xmlns:xlink="http://www.w3.org/1999/xlink" width="200" zoomAndPan="magnify" viewBox="0 0 150 149.999998" height="200" preserveAspectRatio="xMidYMid meet" version="1.0"><path fill="rgb(2.349854%, 71.369934%, 83.139038%)" d="M 75 39.007812 C 59 39.007812 49 47.007812 45 63.003906 C 51 55.003906 58 52.007812 66 54.003906 C 70.5625 55.144531 73.828125 58.457031 77.4375 62.121094 C 83.320312 68.089844 90.128906 75 105 75 C 121 75 131 67 135 51.003906 C 129 59.003906 122 62.003906 114 60.003906 C 109.4375 58.863281 106.175781 55.550781 102.5625 51.886719 C 96.679688 45.917969 89.871094 39.007812 75 39.007812 Z M 45 75 C 29 75 19 82.996094 15 98.992188 C 21 90.996094 28 87.996094 36 89.996094 C 40.5625 91.136719 43.824219 94.449219 47.4375 98.109375 C 53.320312 104.082031 60.128906 110.992188 75 110.992188 C 91 110.992188 101 102.992188 105 86.996094 C 99 94.996094 92 97.992188 84 95.992188 C 79.4375 94.855469 76.171875 91.542969 72.5625 87.878906 C 66.679688 81.910156 59.871094 75 45 75 Z M 45 75 " fill-opacity="1" fill-rule="nonzero"/></svg>