<svg height="440" viewBox="0 0 1286.75 329.68" width="1716" xmlns="http://www.w3.org/2000/svg"><defs><style>.cls-1{fill:#609aca}.cls-2{fill:#de002a}</style></defs><g id="Wortmarke"><path class="cls-1" d="M76.91 85.52c6.63-3.13 16.2-12.51 16.2-27 0-22.45-14.91-36.8-40.48-36.8H0v131H54.83C78.2 152.68 95 139.43 95 115c0-17.52-10.17-25.8-18.09-29.48zm-51.33-41h25c10.86.0 16.93 6.07 16.93 15.08S61.46 74.66 50.6 74.66h-25zm26.68 85.37H25.58V97.66H52.26c11.59.0 17.11 7.18 17.11 16s-5.52 16.2-17.11 16.2zm163.21-22.08V21.67h-25.4v85.19c0 15.09-9 24.11-22.81 24.11s-22.64-9-22.64-24.11V21.67H119.05v86.11c0 27.79 21.34 46 48.21 46s48.21-18.21 48.21-46zM328.62 114c0-11.78-3.12-21.16-10.12-27.6-5.7-5.52-13.06-8.65-25-10.3l-15.64-2.4c-5.52-.73-9.38-2.57-12-5a12.18 12.18.0 01-3.68-9.38c0-9 6.44-16.56 20.06-16.56 8.64.0 18.76 1.1 26.86 9l16.19-16C314.09 25 301 20.57 283 20.57c-28.34.0-45.63 16.37-45.63 39.74.0 11 3.13 19.69 9.38 25.76 5.89 5.71 13.8 9.2 25.4 10.86l15.64 2.39c6.62.92 9.2 2 11.77 4.42 2.76 2.76 4.05 6.44 4.05 10.85.0 10.49-8.1 16.38-23.37 16.38-12 0-23.18-2.76-31.46-11l-16.56 16.56c12.88 13.06 28 17.3 47.84 17.3C307.65 153.79 328.62 139.43 328.62 114zm49.68 38.64v-131H352.72v131zm130.83.0v-131H483.55V101.9L431.66 21.67H408.84v131h25.58V72.27l51.89 80.41zm116.84.0V129.86H565.24V98H617V75.22H565.24V44.49H626V21.67h-86.3v131zM735.63 114c0-11.78-3.13-21.16-10.12-27.6-5.71-5.52-13.07-8.65-25-10.3l-15.64-2.4c-5.52-.73-9.38-2.57-12-5a12.18 12.18.0 01-3.68-9.38c0-9 6.44-16.56 20.06-16.56 8.65.0 18.77 1.1 26.86 9l16.2-16C721.09 25 708 20.57 690 20.57c-28.34.0-45.64 16.37-45.64 39.74.0 11 3.13 19.69 9.39 25.76 5.88 5.71 13.8 9.2 25.39 10.86l15.64 2.39c6.62.92 9.2 2 11.78 4.42 2.76 2.76 4 6.44 4 10.85.0 10.49-8.09 16.38-23.37 16.38-12 0-23.18-2.76-31.46-11l-16.56 16.56c12.88 13.06 28 17.3 47.84 17.3C714.65 153.79 735.63 139.43 735.63 114zm107.82.0c0-11.78-3.13-21.16-10.12-27.6-5.7-5.52-13.06-8.65-25-10.3l-15.64-2.4c-5.52-.73-9.39-2.57-12-5A12.18 12.18.0 01777 59.39c0-9 6.44-16.56 20.05-16.56 8.65.0 18.77 1.1 26.87 9l16.19-16C828.92 25 815.85 20.57 797.82 20.57c-28.34.0-45.63 16.37-45.63 39.74.0 11 3.12 19.69 9.38 25.76 5.89 5.71 13.8 9.2 25.39 10.86l15.64 2.39c6.63.92 9.2 2 11.78 4.42 2.76 2.76 4 6.44 4 10.85.0 10.49-8.1 16.38-23.37 16.38-12 0-23.19-2.76-31.47-11L747 136.49c12.88 13.06 28 17.3 47.84 17.3C822.48 153.79 843.45 139.43 843.45 114zM533.6 262.52c6.62-3.13 16.19-12.51 16.19-27 0-22.45-14.9-36.8-40.48-36.8H456.68v131h54.84c23.37.0 40.11-13.25 40.11-37.72.0-17.52-10.12-25.8-18.03-29.48zm-51.34-41h25c10.85.0 16.92 6.07 16.92 15.08s-6.07 15.09-16.92 15.09h-25zm26.68 85.37H482.26v-32.2h26.68c11.59.0 17.11 7.18 17.11 16S520.53 306.86 508.94 306.86zm94.39 22.82v-131H577.75v131zm136.53.0-46.55-78.94 43.42-52.07h-31.1l-46.18 57v-57H633.87v131h25.58V290.3l16.93-20.24 33.67 59.62zm102.67.0V306.86H781.81V275h51.7V252.22h-51.7V221.49h60.72V198.67h-86.3v131z"></path></g><g id="Bildmarke"><path class="cls-2" d="M1010.71 143.47H947.4a32.24 32.24.0 01-32.26-31h1e2a58.58 58.58.0 0157.79 58.57 72 72 0 01-3 20.29 69.29 69.29.0 0163.42 69c0 37.23-31.7 69.23-66.26 69.3H969.93a57.72 57.72.0 01-50.85-85l43.31-76.91h35.45l-51.37 91.46a26.2 26.2.0 00-3.23 12.7 26.88 26.88.0 0026.69 26.7h94.14a39.22 39.22.0 0039.06-38.34c0-21.1-17.11-37.53-38.2-38.2a37.47 37.47.0 00-16.9 3.51l-12-17.08-6-8.49s11.45-10.59 11.8-26.55c.36-16.58-13.45-30-30-30z"></path><path class="cls-1" d="M1180.46 113.09A82.17 82.17.0 001104.32.0c-32.79.0-60.28 20-74.45 46.81L1007 88h35.51l15.91-28.43a51.17 51.17.0 0196.81 17s.31 3.69.31 5.55a51 51 0 01-17.31 38.29l11 15.75 7.63 11a82.62 82.62.0 0123.33-3.18c42.55.33 77 34.5 77 77a79.19 79.19.0 01-78.79 77.61H1156.5l-17.25 31h39.19a108.3 108.3.0 002-216.59z"></path></g></svg>