<?xml version="1.0" standalone="no"?>
<!DOCTYPE svg PUBLIC "-//W3C//DTD SVG 20010904//EN"
 "http://www.w3.org/TR/2001/REC-SVG-20010904/DTD/svg10.dtd">
<svg version="1.0" xmlns="http://www.w3.org/2000/svg"
 width="880.000000pt" height="880.000000pt" viewBox="0 0 880.000000 880.000000"
 preserveAspectRatio="xMidYMid meet">
<metadata>
Created by potrace 1.12, written by Peter Selinger 2001-2015
</metadata>
<g transform="translate(0.000000,880.000000) scale(0.100000,-0.100000)"
fill="#ffffff" stroke="none">
<path d="M7265 7873 c-273 -63 -566 -153 -754 -232 -112 -48 -469 -228 -531
-269 -30 -21 -89 -52 -130 -71 -41 -19 -104 -52 -140 -73 -91 -56 -218 -131
-330 -195 -287 -164 -1022 -667 -1269 -868 -40 -33 -83 -67 -95 -75 -58 -40
-312 -233 -395 -299 -52 -42 -112 -90 -135 -107 -23 -17 -69 -56 -101 -86 -33
-30 -121 -107 -195 -171 -74 -64 -189 -164 -255 -223 -66 -58 -138 -114 -161
-125 -48 -22 -139 -29 -232 -17 -37 5 -96 10 -132 11 -36 2 -72 7 -79 12 -10
6 -12 4 -6 -5 6 -10 4 -11 -6 -4 -8 5 -26 9 -41 10 -16 1 -29 2 -30 4 -2 1
-12 3 -23 5 -11 2 -48 9 -82 16 -71 14 -253 0 -633 -50 -99 -13 -116 -31 -94
-99 21 -65 34 -116 30 -120 -2 -2 -28 -6 -58 -9 -38 -4 -72 0 -122 16 -142 44
-267 13 -209 -51 17 -20 252 -138 303 -153 14 -4 51 -19 84 -33 l58 -27 -6
-67 c-6 -71 3 -106 33 -125 10 -6 87 -31 172 -56 182 -53 227 -70 236 -93 15
-41 -46 -116 -372 -454 -155 -161 -206 -224 -355 -435 -62 -88 -157 -216 -210
-285 -185 -239 -350 -492 -375 -574 -10 -34 -10 -51 2 -96 12 -46 13 -69 3
-139 -12 -77 -11 -85 7 -110 11 -14 44 -38 74 -53 54 -28 129 -99 129 -123 0
-7 14 -25 32 -40 30 -25 37 -27 90 -21 73 7 120 27 176 73 24 20 65 46 91 59
59 30 119 92 220 229 177 242 268 363 312 415 25 30 73 91 106 135 33 44 109
135 169 201 60 67 144 164 186 215 108 131 731 753 803 803 21 14 91 30 182
41 28 4 104 2 170 -5 312 -29 424 -43 498 -60 44 -10 127 -24 185 -30 58 -6
134 -18 170 -25 36 -8 94 -19 130 -25 36 -6 100 -21 143 -32 68 -19 77 -24 77
-44 0 -14 -17 -41 -42 -66 -82 -82 -415 -344 -722 -566 -56 -41 -119 -91 -141
-112 -22 -20 -65 -53 -95 -73 -30 -20 -116 -84 -190 -143 -74 -59 -241 -177
-370 -264 -457 -305 -464 -310 -571 -401 -36 -31 -101 -79 -144 -108 -112 -75
-228 -175 -243 -209 -7 -16 -39 -50 -72 -75 -71 -56 -94 -88 -86 -121 7 -29
38 -26 76 10 36 33 77 46 101 34 25 -14 14 -35 -42 -81 -22 -19 -82 -75 -133
-125 -50 -50 -111 -105 -136 -123 -47 -34 -277 -171 -286 -171 -3 0 -17 -8
-32 -18 -55 -38 -148 -97 -172 -110 -14 -7 -41 -25 -60 -40 -19 -15 -47 -34
-62 -42 -27 -15 -97 -74 -191 -163 -52 -48 -59 -80 -20 -85 21 -3 48 10 188
88 92 53 112 61 130 54 21 -9 19 -21 -10 -50 l-24 -24 27 6 c15 4 65 27 112
52 l85 44 106 -6 c107 -7 124 -4 201 35 10 5 20 9 23 9 11 0 4 -24 -11 -41
-14 -16 -13 -17 23 -12 21 3 43 8 48 13 6 4 31 10 57 13 64 9 127 43 405 223
80 52 148 92 283 169 74 43 230 141 340 216 63 43 189 128 280 190 91 61 197
134 235 162 39 28 207 143 375 256 277 186 611 431 860 631 52 42 129 101 170
131 41 30 156 121 254 204 98 82 220 183 270 224 50 41 138 113 196 161 198
163 217 171 395 161 55 -3 215 -6 355 -6 235 0 257 2 285 19 17 11 35 24 40
30 59 61 71 67 171 81 167 22 228 26 556 30 174 2 322 6 328 10 17 11 12 45
-7 45 -10 0 -25 5 -33 11 -12 8 -9 10 13 6 57 -9 9 13 -73 33 -47 12 -125 32
-175 45 -90 25 -143 36 -180 39 -11 1 -26 6 -34 10 -10 7 -12 6 -6 -4 6 -10 4
-11 -6 -4 -8 4 -18 9 -24 10 -176 35 -226 54 -220 85 5 23 -13 65 -22 55 -4
-3 -14 0 -22 8 -16 15 -175 71 -221 79 -52 8 -134 47 -152 71 -13 19 67 124
191 251 181 187 366 390 439 481 34 44 114 142 178 219 119 145 242 305 333
435 28 41 70 100 92 130 22 30 66 98 96 150 31 52 77 129 104 170 91 141 109
201 144 473 19 148 19 225 0 306 -17 72 -72 182 -113 227 -42 46 -71 119 -92
234 -23 123 -58 201 -129 284 -62 74 -88 91 -176 118 -52 15 -102 21 -195 23
-69 2 -134 1 -145 -2z m79 -957 c21 -3 40 -7 43 -9 2 -3 -3 -29 -12 -59 -16
-57 -108 -202 -173 -273 -21 -22 -54 -74 -75 -115 -49 -97 -260 -367 -520
-664 -48 -56 -122 -144 -164 -196 -80 -99 -593 -621 -691 -702 -31 -26 -100
-85 -152 -133 -105 -95 -174 -135 -233 -135 -21 0 -89 7 -150 16 -160 22 -430
63 -485 74 -26 4 -85 14 -132 20 -270 35 -531 85 -580 110 -45 23 -47 29 -21
85 36 76 90 120 683 559 294 218 390 284 610 420 78 49 190 125 248 167 58 43
166 115 240 160 74 44 161 101 194 125 32 25 88 61 125 81 36 20 111 62 166
94 135 77 294 151 445 206 69 25 154 60 190 78 61 30 148 57 280 88 54 12 84
13 164 3z"/>
</g>
</svg>
